<?xml version="1.0" encoding="utf-8"?>
<!-- Generator: Adobe Illustrator 24.0.0, SVG Export Plug-In . SVG Version: 6.00 Build 0)  -->
<svg version="1.1" id="Layer_1" xmlns="http://www.w3.org/2000/svg" xmlns:xlink="http://www.w3.org/1999/xlink" x="0px" y="0px"
	 viewBox="0 0 5133.9 1440" style="enable-background:new 0 0 5133.9 1440;" xml:space="preserve">
<style type="text/css">
	.st0{opacity:0.4;fill:#0C0C0C;}
	.st1{fill:#0C0C0C;}
</style>
<title>Modfest 1.15 Logo</title>
<g>
	<g>
		<g>
			<path class="st0" d="M3974.8,277.6c1.8-0.5,3.4-1,5-1.3s3.1-0.7,4.6-1c1.8-0.5,4-0.8,6.7-1c2.7-0.1,5.2,0,7.6,0.4
				c2.4,0.4,4.7,1.1,6.9,2.3c2.2,1.1,3.7,2.9,4.8,5.1c1,2.5,1.7,5.5,2.1,9c0.4,3.4,0.6,6.9,0.6,10.5c0,3.6-0.1,7.1-0.2,10.5
				c-0.1,3.4-0.2,6.5-0.2,9.3v194.9c0,2.8,0.1,5.7,0.2,8.6c0.1,2.9,0.1,5.9-0.2,9c-0.3,3.1-1,5.9-2.3,8.6c-1.3,2.7-3.2,4.9-5.7,6.7
				c-3.6,2.8-8.3,4.3-14.3,4.4c-6,0.1-11.1-0.6-15.4-2.1c-4.6-1.5-7.3-4.4-8.2-8.8c-0.9-4.3-1.3-8.6-1.3-13
				c-1.8-33.6-2.6-66.4-2.5-98.6c0.1-32.2,0.2-65.3,0.2-99.4c-0.5,1.3-2.2,2.4-5.1,3.4c-2.9,1-6.2,1.9-9.9,2.7
				c-3.7,0.8-7.2,1.4-10.5,1.9c-3.3,0.5-5.5,0.8-6.5,0.8c-6.6,0.8-12.7,0.1-18.1-2.1c-5.5-2.2-8.6-7.2-9.3-15.1
				c-1-8.1,0.8-14.5,5.5-19.1c4.7-4.6,10.7-8,18.1-10.3c8.1-2.8,16.1-5.7,23.8-8.6C3958.7,282.5,3966.6,279.9,3974.8,277.6z"/>
			<path class="st0" d="M4114.4,553c0,6.6-2.4,12.3-7.1,17c-4.7,4.7-10.4,7.1-17,7.1c-6.6,0-12.3-2.4-17-7.1
				c-4.7-4.7-7.1-10.4-7.1-17s2.3-12.3,7.1-17.2c4.7-4.8,10.4-7.2,17-7.2c6.6,0,12.3,2.4,17,7.2C4112,540.7,4114.4,546.4,4114.4,553
				z"/>
			<path class="st0" d="M4207.8,277.6c1.8-0.5,3.4-1,5-1.3s3.1-0.7,4.6-1c1.8-0.5,4-0.8,6.7-1c2.7-0.1,5.2,0,7.6,0.4
				c2.4,0.4,4.7,1.1,6.9,2.3c2.2,1.1,3.7,2.9,4.8,5.1c1,2.5,1.7,5.5,2.1,9c0.4,3.4,0.6,6.9,0.6,10.5c0,3.6-0.1,7.1-0.2,10.5
				c-0.1,3.4-0.2,6.5-0.2,9.3v194.9c0,2.8,0.1,5.7,0.2,8.6c0.1,2.9,0.1,5.9-0.2,9c-0.3,3.1-1,5.9-2.3,8.6c-1.3,2.7-3.2,4.9-5.7,6.7
				c-3.6,2.8-8.3,4.3-14.3,4.4c-6,0.1-11.1-0.6-15.4-2.1c-4.6-1.5-7.3-4.4-8.2-8.8c-0.9-4.3-1.3-8.6-1.3-13
				c-1.8-33.6-2.6-66.4-2.5-98.6c0.1-32.2,0.2-65.3,0.2-99.4c-0.5,1.3-2.2,2.4-5.1,3.4c-2.9,1-6.2,1.9-9.9,2.7
				c-3.7,0.8-7.2,1.4-10.5,1.9c-3.3,0.5-5.5,0.8-6.5,0.8c-6.6,0.8-12.7,0.1-18.1-2.1c-5.5-2.2-8.6-7.2-9.3-15.1
				c-1-8.1,0.8-14.5,5.5-19.1c4.7-4.6,10.7-8,18.1-10.3c8.1-2.8,16.1-5.7,23.8-8.6C4191.7,282.5,4199.7,279.9,4207.8,277.6z"/>
			<path class="st0" d="M4463.4,340.2c-2.3-1.5-4.7-3.1-7.2-4.8c-2.5-1.7-5.2-3-8-4c-8.9-3.6-18.6-5.5-29.2-5.9
				c-10.6-0.4-20.4,1.6-29.6,5.9c-7.4,3.6-13.5,8-18.5,13.3c-5,5.3-9,11.3-12,17.9c-3.1,6.6-5.3,13.6-6.9,21
				c-1.5,7.4-2.4,14.8-2.7,22.1c6.9-6.9,15.3-13,25.2-18.5c9.9-5.5,22.6-8.2,38.1-8.2c13,0,25.1,1.8,36.4,5.5
				c11.3,3.7,21.2,9.1,29.6,16.2c8.4,7.1,15,15.9,19.8,26.3c4.8,10.4,7.2,22.4,7.2,35.9c0,13.5-2.5,25.7-7.6,36.8
				c-5.1,11.1-12,20.6-20.8,28.6s-19.2,14.2-31.3,18.7c-12.1,4.5-25.1,6.7-39.1,6.7c-16.3,0-30.5-2.5-42.5-7.4
				c-12.1-5-22.6-11.8-31.5-20.4c-5.1-5.1-9.6-10.7-13.5-17c-3.9-6.2-7.3-13.3-10.1-21.4c-2.8-8-5-17.2-6.5-27.7
				c-1.5-10.4-2.3-22.4-2.3-35.9c0-11.2,0.8-22.5,2.3-33.9c1.5-11.4,4.1-22.5,7.8-33.2c3.7-10.7,8.6-20.7,14.7-30.1
				c6.1-9.4,13.7-17.8,22.9-25.2c8.6-6.9,18.1-12.2,28.2-16c10.2-3.8,20.6-6,31.3-6.5c10.7-0.5,21.4,0.5,32,3.1
				c10.7,2.5,20.7,6.7,30.1,12.6c2.5,1.5,5.5,3.8,8.8,6.7c3.3,2.9,6.1,6.2,8.4,9.7c2.3,3.6,3.7,7.6,4.2,12c0.5,4.5-0.8,9-3.8,13.5
				c-0.5,1-1.7,2-3.4,3.1c-1.8,1-3.8,1.8-6.1,2.3c-2.3,0.5-4.7,0.6-7.2,0.4C4468.1,342.2,4465.7,341.5,4463.4,340.2z M4404.3,424.9
				c-8.6,0.5-16.8,2.7-24.4,6.7c-7.6,3.9-14.2,9.2-19.8,15.8c-3.6,4.3-5.6,9.2-6.1,14.7c-0.5,5.5-0.1,10.9,1.1,16.2
				c1,6.4,3.6,11.9,7.6,16.6c4.1,4.7,8.8,8.5,14.3,11.4c5.5,2.9,11.4,5,17.9,6.1c6.5,1.1,12.8,1.3,18.9,0.6
				c6.9-0.8,13.2-2.6,18.9-5.5c5.7-2.9,10.6-6.6,14.7-11.1c4.1-4.4,7.2-9.7,9.3-15.6c2.2-6,2.9-12.4,2.1-19.3
				c-0.8-7.4-2.7-13.5-5.7-18.5c-3.1-5-7-8.8-11.8-11.6c-4.8-2.8-10.4-4.6-16.8-5.5C4418.1,424.9,4411.4,424.6,4404.3,424.9z"/>
		</g>
	</g>
	<path class="st1" d="M1286.4,635.1L794,142.7c-22.5-22.5-53.1-35.1-84.9-35c-31.8-0.1-62.4,12.5-84.9,35L131.8,635.1
		c-46.7,46.7-46.7,123.1,0,169.8l492.4,492.5c47,46.7,122.8,46.7,169.8,0l492.4-492.5C1333.1,758.2,1333.1,681.8,1286.4,635.1z
		 M978.6,976.2c-0.6,7.1-1.5,14.5-2.7,22.2c-1.2,7.7-3.3,14.8-6.2,21.3c-3,7.1-6.8,12.4-11.5,16c-6.5,5.9-14.2,9.2-23.1,9.8
		c-8.3,3-16.3,3.8-23.9,2.7c-7.7-1.2-14.8-3.3-21.3-6.2c-8.3-5.3-14.3-11.7-18.2-19.1c-3.9-7.4-6.6-15.2-8.4-23.5
		c-1.8-8.3-2.7-16.8-2.7-25.7v-94L859.7,744v-36.8c0-4.4-0.2-9.4-0.4-15.1c-0.3-5.6-0.4-13.7-0.4-24.4c0-1.8,0.1-4.9,0.4-9.3
		c0.3-4.4-0.2-16.4-1.3-35.9c-23.1,38.4-42.1,69.3-57.2,92.7c-15.1,23.4-27.8,41.4-38.1,54.1c-10.3,12.7-19.4,21.3-27,25.7
		c-7.7,4.4-15.7,7-23.9,7.5c-4.7,0.6-9.5-0.3-14.2-2.7c-4.7-2.4-9.3-5.3-13.7-8.9c-4.4-3.5-8.6-7.2-12.4-11.1
		c-3.9-3.8-7-7.5-9.3-11.1c-14.2-17.7-30.1-39-47.9-63.8c-17.7-24.8-36.1-55-55-90.4c0,0.6-0.2,10.3-0.4,29.3
		c-0.3,18.9-0.4,42.4-0.4,70.5c0,28.1-0.2,58.2-0.4,90.4c-0.3,32.2-0.6,62.2-0.9,90c-0.3,27.8-0.7,51-1.3,69.6
		c-0.6,18.6-1.2,27.9-1.8,27.9c0,10.1-2.4,19.4-7.1,27.9c-4.7,8.6-11.1,15.5-19.1,20.8c-8,5.3-17.3,8.3-27.9,8.9
		c-10.6,0.6-22.2-2.4-34.6-8.9c-7.7-4.7-13.5-11.5-17.3-20.4c-3.9-8.9-6.4-17.1-7.5-24.8c-0.6-8.3-1-16.3-1.3-23.9
		c-0.3-7.7-0.4-15.7-0.4-23.9l0.9-69.2l0.9-136.5V623.4c0-51.4,1.8-102,5.3-151.6c0-6.5,0.7-12.6,2.2-18.2
		c1.5-5.6,3.4-11.1,5.8-16.4c4.7-9.4,10.9-16.5,18.6-21.3c8.9-5.3,18.3-8,28.4-8c4.1,0,8.1,0.2,12,0.4c3.8,0.3,7.5,0.7,11.1,1.3
		c11.8,2.4,22,9.3,30.6,20.8c8.6,11.5,16.7,21.4,24.4,29.7c4.7,5.3,9.8,11.8,15.1,19.5c5.3,7.7,10.6,15.7,16,23.9
		c5.3,8.3,10.3,16.3,15.1,23.9c4.7,7.7,8.9,14.5,12.4,20.4c15.4,24.8,29.1,47.6,41.2,68.3c12.1,20.7,23.5,38.4,34.1,53.2
		c1.8-1.8,3.8-4.3,6.2-7.5c2.4-3.2,4.9-6.8,7.5-10.6c2.7-3.8,5-7.5,7.1-11.1c2.1-3.5,3.7-6.5,4.9-8.9c5.9-9.4,11.8-18.8,17.7-27.9
		c5.9-9.2,12.3-18.9,19.1-29.3c6.8-10.3,13.9-21.7,21.3-34.1c7.4-12.4,16.1-26.6,26.2-42.6c4.1-7.1,9.4-15.7,16-25.7
		c6.5-10,13.9-19.8,22.2-29.3c8.3-9.4,17-17.6,26.2-24.4c9.2-6.8,18.5-10.2,27.9-10.2c4.7,0,8.9,0.2,12.4,0.4
		c3.5,0.3,7.1,0.7,10.6,1.3c7.1,0.6,13.9,3.9,20.4,9.8c4.7,4.7,8.3,9.8,10.6,15.1c2.4,7.7,3.8,14.2,4.4,19.5c0.6,4.1,1,8,1.3,11.5
		c0.3,3.5,0.4,7.1,0.4,10.6c0,33.1,0.3,65.9,0.9,98.4s0.9,65.3,0.9,98.4c0,40.2,0.1,81.6,0.4,124.1c0.3,42.6,0.4,83.9,0.4,124.1
		c0,8.3,0.3,17.2,0.9,26.6C979.2,957.3,979.2,966.8,978.6,976.2z"/>
	<g>
		<path class="st1" d="M2125.1,1016.7c-0.7,7.9-1.6,16.1-3,24.6c-1.3,8.5-3.6,16.4-6.9,23.6c-3.3,7.9-7.5,13.8-12.8,17.7
			c-7.2,6.5-15.7,10.2-25.6,10.8c-9.2,3.3-18.1,4.3-26.6,3s-16.4-3.6-23.6-6.9c-9.2-5.9-15.9-12.9-20.2-21.2
			c-4.3-8.2-7.4-16.9-9.3-26.1c-2-9.2-3-18.7-3-28.5s0-19,0-27.6v-76.8l-1-150.6c0-10.5,0-18.7,0-24.6s0-11.3,0-16.2
			s-0.2-10.5-0.5-16.7s-0.5-15.3-0.5-27.1c0-2,0.2-5.4,0.5-10.3c0.3-4.9-0.2-18.2-1.5-39.9c-25.6,42.7-46.7,76.9-63.5,102.8
			c-16.7,25.9-30.8,45.9-42.3,60s-21.5,23.6-30,28.5s-17.4,7.7-26.6,8.4c-5.3,0.7-10.5-0.3-15.7-3c-5.3-2.6-10.3-5.9-15.3-9.8
			c-4.9-3.9-9.5-8-13.8-12.3s-7.7-8.4-10.3-12.3c-15.7-19.7-33.5-43.3-53.1-70.9s-40-61-61-100.4c0,0.7-0.2,11.5-0.5,32.5
			s-0.5,47.1-0.5,78.2c0,31.2-0.2,64.6-0.5,100.4c-0.3,35.8-0.7,69.1-1,99.9c-0.3,30.8-0.8,56.6-1.5,77.2c-0.7,20.7-1.3,31-2,31
			c0,11.2-2.6,21.5-7.9,31s-12.3,17.2-21.2,23.1c-8.9,5.9-19.2,9.2-31,9.8c-11.8,0.6-24.6-2.6-38.4-9.8
			c-8.5-5.2-14.9-12.8-19.2-22.6c-4.3-9.8-7.1-19-8.4-27.6c-0.7-9.2-1.2-18-1.5-26.6c-0.3-8.5-0.5-17.4-0.5-26.6l1-76.8l1-151.5V625
			c0-57.1,2-113.2,5.9-168.3c0-7.2,0.8-13.9,2.5-20.2c1.6-6.2,3.8-12.3,6.4-18.2c5.2-10.5,12.1-18.4,20.7-23.6
			c9.8-5.9,20.3-8.9,31.5-8.9c4.6,0,9,0.2,13.3,0.5s8.4,0.8,12.3,1.5c13.1,2.6,24.4,10.3,33.9,23.1c9.5,12.8,18.5,23.8,27.1,33
			c5.2,5.9,10.8,13.1,16.7,21.6c5.9,8.5,11.8,17.4,17.7,26.6c5.9,9.2,11.5,18.1,16.7,26.6s9.8,16.1,13.8,22.6
			c17.1,27.6,32.3,52.8,45.8,75.8c13.4,23,26.1,42.7,37.9,59c2-2,4.3-4.8,6.9-8.4c2.6-3.6,5.4-7.5,8.4-11.8s5.6-8.4,7.9-12.3
			c2.3-3.9,4.1-7.2,5.4-9.8c6.6-10.5,13.1-20.8,19.7-31c6.5-10.2,13.6-21,21.2-32.5c7.5-11.5,15.4-24.1,23.6-37.9
			c8.2-13.8,17.9-29.5,29-47.2c4.6-7.9,10.5-17.4,17.7-28.5s15.4-22,24.6-32.5s18.9-19.5,29-27.1c10.2-7.5,20.5-11.3,31-11.3
			c5.2,0,9.8,0.2,13.8,0.5c3.9,0.3,7.9,0.8,11.8,1.5c7.9,0.7,15.4,4.3,22.6,10.8c5.2,5.3,9.2,10.8,11.8,16.7
			c2.6,8.5,4.3,15.7,4.9,21.6c0.6,4.6,1.1,8.9,1.5,12.8c0.3,3.9,0.5,7.9,0.5,11.8c0,36.7,0.3,73.2,1,109.2c0.6,36.1,1,72.5,1,109.2
			c0,44.6,0.2,90.5,0.5,137.8c0.3,47.2,0.5,93.2,0.5,137.8c0,9.2,0.3,19,1,29.5C2125.8,995.7,2125.8,1006.2,2125.1,1016.7z"/>
		<path class="st1" d="M2331.8,642.7c21.6-10.5,44.3-18,67.9-22.6c23.6-4.6,47.1-5.6,70.4-3c23.3,2.6,45.9,8.9,67.9,18.7
			s42.1,23.6,60.5,41.3c15.1,15.1,28.2,33.3,39.4,54.6c11.1,21.3,19.3,42.2,24.6,62.5c11.1,36.1,12.8,72.5,4.9,109.2
			c-7.9,36.7-21.3,70.9-40.3,102.3c-9.2,14.4-20.5,27.4-33.9,38.9c-13.5,11.5-27.7,20.8-42.8,28c-19.7,9.2-41,15.6-64,19.2
			s-45.3,4.4-66.9,2.5c-39.4-2-74-11.8-103.8-29.5c-29.9-17.7-53.8-40.3-71.8-67.9c-18.1-27.6-29.9-58.9-35.4-94
			c-5.6-35.1-3.4-71,6.4-107.8c10.5-39.4,25.7-71.3,45.8-95.9C2280.4,674.7,2304.2,655.9,2331.8,642.7z M2361.3,774.6
			c-9.8,9.2-17.4,20.7-22.6,34.4c-5.3,13.8-8.5,28-9.8,42.8s-0.2,29.5,3.4,44.3c3.6,14.8,9.3,28,17.2,39.9
			c6.6,9.8,18.4,18.1,35.4,24.6c17.1,6.6,34.8,10.5,53.1,11.8c21,1.3,39.4-4.4,55.1-17.2c15.7-12.8,27.7-28.7,35.9-47.7
			s12-39.7,11.3-62s-6.6-42.6-17.7-61c-7.9-13.1-18.9-22.8-33-29s-28.9-9.5-44.3-9.8c-15.4-0.3-30.7,2-45.8,6.9
			C2384.6,757.4,2371.8,764.8,2361.3,774.6z"/>
		<path class="st1" d="M3058,399.7c12.5-3.3,23.4-3.8,33-1.5c9.5,2.3,17.7,6.7,24.6,13.3c6.9,6.6,12.1,14.8,15.7,24.6
			c3.6,9.8,5.4,20.7,5.4,32.5c0.6,32.8,0.8,58.4,0.5,76.8s-0.5,34.4-0.5,48.2v302.1c0,35.4,0,64.9,0,88.6c0,23.6-1.2,42.8-3.4,57.6
			c-2.3,14.8-6.2,25.8-11.8,33s-13.9,12.3-25.1,15.3c-11.2,3-25.8,4.4-43.8,4.4c-18.1,0-40.5,0-67.4,0
			c-70.9,0-126.8-16.7-167.8-50.2s-62.8-86.6-65.4-159.4c-1.3-31.5,2.6-60.3,11.8-86.6c9.2-26.2,22.8-48.7,40.8-67.4
			s40.3-33.1,66.9-43.3c26.6-10.2,56.9-14.9,91-14.3h54.1V497.1c0-10.5,0-20.8,0-31s1-19.7,3-28.5s5.9-16.6,11.8-23.1
			C3037.3,407.9,3046.2,403,3058,399.7z M2886.8,945.8c13.8,19,38.7,29.5,74.8,31.5c7.2,0.7,14.1,0.8,20.7,0.5
			c6.5-0.3,12.5-1.1,17.7-2.5c5.9-0.6,11.5-1.6,16.7-3v-182c-23-3.9-43.8-6.4-62.5-7.4s-37.2,5.8-55.6,20.2
			c-9.8,7.9-17.4,17.9-22.6,30c-5.3,12.1-8.2,24.9-8.9,38.4s0.6,26.7,3.9,39.9C2874.3,924.5,2879.5,936,2886.8,945.8z"/>
		<path class="st1" d="M3676,420.4c5.9,7.9,9.5,17.1,10.8,27.6c0,3.9-0.2,7.7-0.5,11.3c-0.3,3.6-0.8,7.1-1.5,10.3
			c-0.7,7.2-4.9,14.1-12.8,20.7c-4.6,3.3-10.5,6.6-17.7,9.8c-3.9,1.3-8,2.1-12.3,2.5c-4.3,0.3-9,0.8-14.3,1.5c-3.9,1.3-8.2,2-12.8,2
			s-9.2,0-13.8,0h-44.3l-205.7,1v3l-1,160.4c5.2,0,11,0,17.2,0s13.9-0.3,23.1-1c26.2,0,49.7,0,70.4,0s43.5,0.3,68.4,1h5.9
			c7.2,0,14.6,0.2,22.1,0.5s15.3,0.5,23.1,0.5c7.2,0.7,14.4,1.5,21.6,2.5c7.2,1,14.4,2.8,21.6,5.4c11.8,3.9,20.3,10.2,25.6,18.7
			c7.2,8.5,10.8,17.4,10.8,26.6c0,3.9,0,7.7,0,11.3s-0.7,7.4-2,11.3c-0.7,5.3-4.9,11.8-12.8,19.7c-5.3,4.6-11.5,7.5-18.7,8.9
			c-3.3,1.3-7.1,2.5-11.3,3.4c-4.3,1-8.7,1.8-13.3,2.5s-9,1.2-13.3,1.5s-9,0.5-14.3,0.5h-45.3l-181.1,1l-3,228.3v7.9
			c0,3.3-0.2,6.4-0.5,9.3c-0.3,3-0.8,6.1-1.5,9.3c-1.3,3.3-2.5,6.7-3.4,10.3c-1,3.6-2.1,7.1-3.4,10.3c-4.6,9.2-8.9,15.4-12.8,18.7
			c-7.2,5.3-16.1,8.9-26.6,10.8c-17.7,3.9-34.4,2-50.2-5.9c-3.3-2-6.4-4.4-9.3-7.4s-5.4-6.7-7.4-11.3c-1.3-2.6-2-4.6-2-5.9l-3-5.9
			c-2-3.3-3.3-6.7-3.9-10.3c-0.7-3.6-1.3-7-2-10.3c0-3.3-0.2-6.5-0.5-9.8s-0.8-6.5-1.5-9.8c-0.7-5.2-0.7-10.5,0-15.7v-15.7l1-76.8
			l1-141.7c0.6-21,1-42.3,1-64s0-43.9,0-66.9c-0.7-23.6-0.8-44.6-0.5-63s1.1-38.4,2.5-60V504c0.6-7.2,1-13.9,1-20.2
			c0-6.2,0.6-12.6,2-19.2c1.3-14.4,4.6-27.2,9.8-38.4c4.6-11.1,11.1-19,19.7-23.6c9.8-5.9,20.3-8.9,31.5-8.9c5.2,0,9.5,0.3,12.8,1
			v-1c11.8,0,21.3,0,28.5,0s14.1,0,20.7,0c6.5,0,13.8-0.2,21.6-0.5c7.9-0.3,18.4-0.5,31.5-0.5c52.5-0.6,104.3-0.6,155.5,0h4.9
			c7.2,0.7,14.6,1,22.1,1s15.3,0.3,23.1,1c7.2,0,14.4,0.8,21.6,2.5c7.2,1.6,14.4,3.8,21.6,6.4C3661.5,406.9,3670,412.5,3676,420.4z"
			/>
		<path class="st1" d="M4049.9,952.7c7.9-2,15.9-3.3,24.1-3.9c8.2-0.6,15.7,0.3,22.6,3c6.9,2.6,12.6,7.1,17.2,13.3
			s6.9,14.9,6.9,26.1c0,7.9-2,15.4-5.9,22.6c-3.9,7.2-8.9,13.8-14.8,19.7s-12.5,11-19.7,15.3s-14.1,7.7-20.7,10.3
			c-19,8.5-40.8,15.1-65.4,19.7c-24.6,4.6-50,6.2-76.3,4.9c-35.4-1.3-69.4-8.4-101.8-21.2c-32.5-12.8-57.9-33.9-76.3-63.5
			c-17.1-28.9-27.2-61-30.5-96.4s-1.6-68.9,4.9-100.4c7.2-38,19.5-69,36.9-93c17.4-23.9,38.2-43.1,62.5-57.6
			c29.5-17.1,62.6-25.9,99.4-26.6c36.7-0.6,71.8,6.6,105.3,21.6c22.3,9.8,42.3,23.1,60,39.9c17.7,16.7,31.2,36.9,40.3,60.5
			c2.6,5.9,4.8,13.1,6.4,21.6s2.8,17.6,3.4,27.1s0.6,18.9,0,28c-0.7,9.2-2.3,17.4-4.9,24.6c-3.9,11.8-8.9,21-14.8,27.6
			s-13.5,11.5-22.6,14.8c-9.2,3.3-20.2,5.4-33,6.4s-28,1.8-45.8,2.5c-15.7,0.7-30.5,1-44.3,1s-27.9-0.2-42.3-0.5
			c-14.4-0.3-29.4-0.6-44.8-1c-15.4-0.3-32.6-0.8-51.7-1.5c-2,13.1-0.2,24.4,5.4,33.9c5.6,9.5,13.3,17.4,23.1,23.6
			c9.8,6.2,21,11,33.5,14.3s24.6,5.3,36.4,5.9c22.3,1.3,43.6-0.5,64-5.4C4007.2,965,4028.2,959.3,4049.9,952.7z M4007.6,761.8
			c-12.5-14.4-25.6-24.9-39.4-31.5c-10.5-4.6-21.5-6.7-33-6.4s-22.5,2.1-33,5.4c-19,4.6-35.1,14.4-48.2,29.5
			c-1.3,1.3-3.6,4.4-6.9,9.3c-3.3,4.9-6.4,10-9.3,15.3c-3,5.3-5.1,10.2-6.4,14.8c-1.3,4.6-0.7,6.9,2,6.9h192.9
			c-0.7-9.2-2.3-16.9-4.9-23.1C4018.7,775.8,4014.1,769,4007.6,761.8z"/>
		<path class="st1" d="M4443.5,914.3c-12.5-7.9-26.4-14.1-41.8-18.7c-15.4-4.6-31.2-8.9-47.2-12.8c-16.1-3.9-31.7-8.4-46.7-13.3
			c-15.1-4.9-28.9-12-41.3-21.2c-26.9-20.3-42.5-45.4-46.7-75.3c-4.3-29.8,2.1-59.9,19.2-90c9.2-15.7,21.3-28.7,36.4-38.9
			s31.6-18,49.7-23.6c18-5.6,36.6-8.7,55.6-9.3s37.1,0.3,54.1,3c11.1,2,23,4.8,35.4,8.4c12.5,3.6,24.1,8.4,34.9,14.3
			s20.7,13.3,29.5,22.1s15.3,19.8,19.2,33c2.6,8.5,3.1,16.7,1.5,24.6c-1.6,7.9-4.9,14.4-9.8,19.7s-11.2,9.2-18.7,11.8
			s-15.6,3.3-24.1,2c-9.8-2-19-4.9-27.6-8.9c-8.5-3.9-17.1-8.2-25.6-12.8s-17.2-8.5-26.1-11.8s-18.2-4.9-28-4.9
			c-15.1-0.6-27.6,2-37.4,7.9s-16.6,13.1-20.2,21.6s-3.3,17.7,1,27.6c4.3,9.8,13.3,18.4,27.1,25.6c12.5,6.6,26.2,11.8,41.3,15.7
			c15.1,3.9,30,7.9,44.8,11.8c14.8,3.9,29.2,8.5,43.3,13.8c14.1,5.3,26.7,12.5,37.9,21.6c21.6,17.7,34.9,38.4,39.9,62
			s3.4,46.9-4.4,69.9c-7.9,23-21.5,43.3-40.8,61c-19.4,17.7-42.2,29.5-68.4,35.4c-19,3.9-39.5,5.9-61.5,5.9s-43.6-2.3-64.9-6.9
			s-41.7-11.8-61-21.6c-19.4-9.8-35.6-22.3-48.7-37.4c-9.2-10.5-13.9-22.5-14.3-35.9c-0.3-13.4,2.3-25.2,7.9-35.4
			s13.6-17.2,24.1-21.2c10.5-3.9,22.3-1.6,35.4,6.9c10.5,7.2,23,14.3,37.4,21.2s28.9,12.3,43.3,16.2s28.4,5.9,41.8,5.9
			s25.1-3,34.9-8.9c14.4-9.2,22-19.8,22.6-32C4456.9,930.3,4452.7,920.9,4443.5,914.3z"/>
		<path class="st1" d="M5032.9,653.6c5.2,12.5,5.7,26.2,1.5,41.3c-4.3,15.1-12,24.9-23.1,29.5c-5.9,2.6-13.8,4.8-23.6,6.4
			c-9.8,1.6-20.5,3.1-32,4.4c-11.5,1.3-22.8,2.3-33.9,3c-11.2,0.7-20.7,1-28.5,1c0.6,19.7,1.3,39.9,2,60.5c0.6,20.7,1.3,40.8,2,60.5
			c0.6,19.7,1,38.5,1,56.6s-0.3,34.3-1,48.7c0,9.8,0,21.2,0,33.9c0,12.8-0.8,25.1-2.5,36.9c-1.6,11.8-4.1,22.1-7.4,31
			s-8.2,14.6-14.8,17.2c-20.3,8.5-38.9,11-55.6,7.4s-28.7-10.7-35.9-21.2c-5.3-8.5-9.2-18.5-11.8-30c-2.6-11.5-4.4-23.3-5.4-35.4
			c-1-12.1-1.3-23.9-1-35.4s0.5-21.5,0.5-30c0.6-27.6,1.1-58.9,1.5-94c0.3-35.1,0.5-70.4,0.5-105.8h-14.8c-7.9,0-17.9-0.2-30-0.5
			s-24.3-1.3-36.4-3c-12.1-1.6-23.5-3.9-33.9-6.9c-10.5-3-18.1-7.4-22.6-13.3c-7.2-8.5-11.7-17.7-13.3-27.6c-1.6-9.8-1-19.2,2-28
			c3-8.9,7.7-16.7,14.3-23.6c6.5-6.9,14.1-11.3,22.6-13.3c11.8-3.3,28.5-5.1,50.2-5.4c21.6-0.3,42-0.2,61,0.5
			c-0.7-6.6-1-12.9-1-19.2c0-6.2-0.3-12.3-1-18.2c-0.7-7.9-1-17.9-1-30s0.8-24.3,2.5-36.4c1.6-12.1,4.4-23.6,8.4-34.4
			c3.9-10.8,9.5-19.2,16.7-25.1c9.8-7.9,19.8-12.3,30-13.3s19.7,0.5,28.5,4.4c8.9,3.9,16.4,9.7,22.6,17.2s10.7,15.9,13.3,25.1
			c2,7.9,3.6,17.2,4.9,28s2.1,22.1,2.5,33.9c0.3,11.8,0.5,23.6,0.5,35.4c0,11.8,0,22.6,0,32.5h9.8c9.8,0,21.3-0.3,34.4-1
			c13.1-0.6,26.1-0.3,38.9,1s24.4,4.4,34.9,9.3C5019.8,633.4,5027.7,641.8,5032.9,653.6z"/>
	</g>
</g>
</svg>
