<?xml version="1.0" standalone="no"?>
<!DOCTYPE svg PUBLIC "-//W3C//DTD SVG 20010904//EN"
 "http://www.w3.org/TR/2001/REC-SVG-20010904/DTD/svg10.dtd">
<svg version="1.0" xmlns="http://www.w3.org/2000/svg"
 width="700.000000pt" height="700.000000pt" viewBox="0 0 700.000000 700.000000"
 preserveAspectRatio="xMidYMid meet">
<metadata>
Created by potrace 1.11, written by Peter Selinger 2001-2013
</metadata>
<g transform="translate(0.000000,700.000000) scale(0.100000,-0.100000)"
fill="#000000" stroke="none">
<path d="M3414 6471 c-67 -11 -116 -27 -189 -63 -53 -26 -212 -182 -1332
-1301 -1119 -1120 -1275 -1279 -1301 -1333 -95 -190 -90 -396 14 -570 28 -47
320 -345 1298 -1322 1364 -1363 1288 -1293 1442 -1338 79 -23 229 -23 308 0
154 45 78 -25 1442 1338 980 979 1270 1274 1298 1322 57 95 78 174 79 291 1
116 -16 183 -71 290 -33 64 -116 150 -972 1008 -1256 1261 -1581 1577 -1657
1616 -110 55 -248 79 -359 62z m-769 -1481 c45 -20 68 -42 190 -190 104 -126
173 -229 361 -540 199 -328 310 -504 320 -507 15 -4 63 69 395 602 238 382
281 446 359 525 41 42 98 90 125 106 46 27 57 29 138 27 154 -3 222 -58 247
-201 18 -104 32 -2565 15 -2664 -26 -152 -81 -210 -223 -237 -114 -22 -224 22
-276 112 -52 89 -56 126 -57 597 -1 239 -5 642 -8 895 l-6 460 -129 -210
c-286 -465 -402 -611 -513 -649 -131 -45 -203 4 -406 273 -155 205 -238 329
-334 498 l-70 123 -7 -803 c-8 -887 -15 -1075 -44 -1141 -47 -104 -140 -166
-252 -166 -92 0 -183 45 -222 110 -59 97 -58 85 -58 1020 0 850 11 1426 29
1655 9 104 14 128 43 184 57 112 139 156 273 145 39 -3 88 -14 110 -24z"/>
</g>
</svg>
