<?xml version="1.0" standalone="no"?>
<!DOCTYPE svg PUBLIC "-//W3C//DTD SVG 20010904//EN"
 "http://www.w3.org/TR/2001/REC-SVG-20010904/DTD/svg10.dtd">
<svg version="1.0" xmlns="http://www.w3.org/2000/svg"
 width="700.000000pt" height="700.000000pt" viewBox="0 0 700.000000 700.000000"
 preserveAspectRatio="xMidYMid meet">
<metadata>
Created by potrace 1.11, written by Peter Selinger 2001-2013
</metadata>
<g transform="translate(0.000000,700.000000) scale(0.100000,-0.100000)"
fill="#000000" stroke="none">
<path d="M3356 6454 c-32 -8 -90 -30 -130 -51 -66 -34 -154 -119 -1332 -1297
-1175 -1175 -1263 -1266 -1297 -1332 -90 -175 -90 -373 0 -548 34 -66 122
-157 1297 -1332 1170 -1170 1266 -1263 1331 -1297 92 -47 175 -67 275 -67 100
0 183 20 275 67 65 34 161 127 1331 1297 1175 1175 1263 1266 1297 1332 90
175 90 373 0 548 -34 66 -122 157 -1297 1332 -1175 1175 -1266 1263 -1332
1297 -39 20 -100 43 -135 52 -79 18 -205 18 -283 -1z m-695 -1465 c56 -31 230
-239 343 -409 46 -69 162 -257 259 -417 210 -348 247 -405 260 -400 6 2 28 30
50 63 84 127 305 477 408 647 162 264 204 324 298 418 115 115 155 133 271
127 132 -8 198 -56 230 -168 16 -60 28 -748 30 -1820 1 -712 -1 -845 -14 -904
-28 -126 -78 -182 -189 -212 -197 -52 -331 46 -366 268 -6 37 -11 395 -12 873
-1 446 -4 830 -8 854 l-6 44 -84 -139 c-47 -76 -135 -215 -196 -309 -212 -323
-298 -405 -427 -405 -96 0 -169 65 -360 321 -131 175 -227 319 -308 462 -30
53 -57 97 -61 97 -3 0 -9 -390 -12 -867 -4 -491 -11 -900 -17 -941 -12 -92
-37 -148 -85 -197 -54 -54 -116 -79 -195 -79 -129 1 -217 65 -260 192 l-23 67
2 975 c2 923 11 1397 31 1591 15 145 58 221 154 270 58 29 66 31 152 26 72 -3
101 -9 135 -28z"/>
</g>
</svg>
