<?xml version="1.0" standalone="no"?>
<!DOCTYPE svg PUBLIC "-//W3C//DTD SVG 20010904//EN"
 "http://www.w3.org/TR/2001/REC-SVG-20010904/DTD/svg10.dtd">
<svg version="1.0" xmlns="http://www.w3.org/2000/svg"
 width="700.000000pt" height="700.000000pt" viewBox="0 0 700.000000 700.000000"
 preserveAspectRatio="xMidYMid meet">
<metadata>
Created by potrace 1.11, written by Peter Selinger 2001-2013
</metadata>
<g transform="translate(0.000000,700.000000) scale(0.100000,-0.100000)"
fill="#000000" stroke="none">
<path d="M3350 6454 c-30 -8 -84 -29 -120 -46 -60 -29 -170 -136 -1323 -1287
-1021 -1019 -1266 -1268 -1297 -1321 -56 -94 -80 -183 -80 -294 0 -105 17
-182 62 -276 29 -60 124 -158 1282 -1318 716 -717 1274 -1268 1305 -1289 30
-20 91 -49 135 -65 69 -24 97 -28 186 -28 89 0 117 4 186 28 44 16 105 45 135
65 31 21 589 572 1305 1289 1161 1163 1253 1258 1282 1319 51 106 65 178 60
299 -6 121 -31 201 -90 290 -22 32 -566 583 -1290 1306 -1150 1147 -1258 1253
-1318 1282 -36 17 -92 38 -125 47 -74 19 -222 18 -295 -1z m-693 -1465 c30
-15 65 -46 107 -97 33 -42 81 -98 105 -126 64 -75 206 -293 406 -626 98 -162
192 -316 210 -343 l33 -48 28 35 c16 19 45 61 64 93 19 32 79 128 134 213 55
85 164 261 244 390 79 129 169 267 199 307 73 97 166 181 232 211 48 22 63 24
137 19 153 -11 209 -69 233 -238 16 -119 27 -2525 12 -2614 -26 -150 -76 -215
-187 -246 -84 -23 -115 -24 -185 -3 -68 20 -136 87 -161 159 -34 98 -38 184
-38 1000 0 446 -3 827 -6 847 l-7 38 -86 -143 c-349 -573 -473 -717 -619 -717
-94 0 -168 63 -340 293 -156 208 -234 323 -318 471 -35 61 -68 118 -73 126 -6
10 -10 -174 -11 -530 -1 -784 -15 -1301 -34 -1367 -20 -64 -89 -143 -152 -173
-58 -27 -150 -29 -213 -6 -72 26 -110 63 -144 134 -28 59 -31 78 -36 196 -10
218 5 2124 18 2326 14 218 33 295 87 358 62 73 117 93 232 87 59 -3 98 -11
129 -26z"/>
</g>
</svg>
