<?xml version="1.0" standalone="no"?>
<!DOCTYPE svg PUBLIC "-//W3C//DTD SVG 20010904//EN"
 "http://www.w3.org/TR/2001/REC-SVG-20010904/DTD/svg10.dtd">
<svg version="1.0" xmlns="http://www.w3.org/2000/svg"
 width="700.000000pt" height="700.000000pt" viewBox="0 0 700.000000 700.000000"
 preserveAspectRatio="xMidYMid meet">
<metadata>
Created by potrace 1.11, written by Peter Selinger 2001-2013
</metadata>
<g transform="translate(0.000000,700.000000) scale(0.100000,-0.100000)"
fill="#000000" stroke="none">
<path d="M3412 6469 c-83 -12 -157 -41 -228 -88 -38 -25 -504 -485 -1310
-1292 -1226 -1229 -1252 -1255 -1286 -1329 -47 -98 -60 -156 -59 -265 0 -103
24 -196 73 -285 24 -42 316 -341 1277 -1303 711 -712 1269 -1263 1300 -1284
30 -20 91 -49 135 -65 69 -24 97 -28 186 -28 89 0 117 4 186 28 44 16 105 45
135 65 31 21 589 572 1305 1289 1354 1357 1290 1287 1329 1438 22 83 23 216 1
299 -39 151 28 78 -1350 1457 -1092 1091 -1279 1275 -1331 1301 -107 56 -246
79 -363 62z m-462 -2062 c101 -295 181 -539 179 -541 -2 -2 -105 9 -229 25
-742 96 -879 115 -882 122 -6 15 736 958 743 945 4 -7 89 -255 189 -551z
m1669 82 c203 -261 367 -476 365 -478 -6 -6 -1108 -150 -1113 -145 -3 3 224
678 362 1077 5 15 11 26 14 24 2 -2 170 -218 372 -478z m-771 -897 c-7 -17
-343 -502 -348 -502 -5 0 -341 485 -348 502 -2 4 155 8 348 8 193 0 350 -4
348 -8z m-1963 -631 c135 -26 494 -81 525 -81 6 0 10 -72 10 -185 l0 -185 210
0 210 0 0 165 0 166 148 -8 c180 -10 955 -10 1035 0 l57 7 0 -165 0 -165 210
0 210 0 0 180 0 179 33 6 c17 3 88 12 157 20 144 18 375 56 516 85 53 11 99
18 102 15 7 -7 -13 -90 -38 -157 -55 -148 -217 -332 -397 -452 -277 -184 -689
-318 -1078 -351 -38 -3 -94 -8 -122 -11 l-53 -5 0 210 0 211 -315 0 -315 0 0
-183 c0 -101 -2 -186 -6 -189 -7 -7 -192 33 -308 67 -501 146 -873 439 -970
764 -22 74 -21 104 2 97 9 -3 89 -19 177 -35z"/>
</g>
</svg>
