<?xml version="1.0" encoding="utf-8"?>
<!-- Generator: Adobe Illustrator 24.0.0, SVG Export Plug-In . SVG Version: 6.00 Build 0)  -->
<svg version="1.1" id="Layer_1" xmlns="http://www.w3.org/2000/svg" xmlns:xlink="http://www.w3.org/1999/xlink" x="0px" y="0px"
	 viewBox="0 0 5133.9 1440" style="enable-background:new 0 0 5133.9 1440;" xml:space="preserve">
<style type="text/css">
	.st0{fill:#FFBF0B;}
	.st1{enable-background:new    ;}
	.st2{fill:#845E08;}
</style>
<title>Modfest 1.15 Logo</title>
<path d="M760.3,1377.3c-43.8,0.2-85.8-17.2-116.7-48.2L151.2,836.7c-64.3-64.3-64.3-169,0-233.4l492.4-492.4
	c64.5-64.3,168.9-64.3,233.4,0l492.4,492.4c64.3,64.5,64.3,168.9,0,233.4L877,1329.1C846.1,1360.1,804.1,1377.5,760.3,1377.3z"/>
<path class="st0" d="M760.3,107.7c31.8-0.1,62.4,12.5,84.9,35l492.4,492.4c46.7,46.7,46.7,123.1,0,169.8l-492.4,492.5
	c-47,46.7-122.8,46.7-169.8,0L183,804.9c-46.7-46.7-46.7-123.1,0-169.8l492.4-492.4C697.9,120.2,728.5,107.6,760.3,107.7
	 M760.3,17.7c-55.7-0.1-109.1,22-148.5,61.4L119.4,571.5c-81.9,82.1-81.9,214.9,0,297L611.8,1361c82.1,81.9,214.9,81.9,297,0
	l492.5-492.5c81.9-82.1,81.9-214.9,0-297L908.8,79.1C869.4,39.7,816,17.6,760.3,17.7L760.3,17.7z"/>
<g class="st1">
	<path class="st0" d="M1029.8,976.2c-0.6,7.1-1.5,14.5-2.7,22.2c-1.2,7.7-3.3,14.8-6.2,21.3c-3,7.1-6.8,12.4-11.5,16
		c-6.5,5.9-14.2,9.2-23.1,9.8c-8.3,3-16.3,3.8-23.9,2.7c-7.7-1.2-14.8-3.3-21.3-6.2c-8.3-5.3-14.3-11.7-18.2-19.1
		s-6.6-15.2-8.4-23.5c-1.8-8.3-2.7-16.8-2.7-25.7s0-17.1,0-24.8v-69.2L910.9,744c0-9.4,0-16.8,0-22.2c0-5.3,0-10.2,0-14.6
		s-0.2-9.4-0.4-15.1c-0.3-5.6-0.4-13.7-0.4-24.4c0-1.8,0.1-4.9,0.4-9.3c0.3-4.4-0.2-16.4-1.3-35.9c-23.1,38.4-42.1,69.3-57.2,92.7
		c-15.1,23.4-27.8,41.4-38.1,54.1c-10.3,12.7-19.4,21.3-27,25.7c-7.7,4.4-15.7,7-23.9,7.5c-4.7,0.6-9.5-0.3-14.2-2.7
		s-9.3-5.3-13.7-8.9c-4.4-3.5-8.6-7.2-12.4-11.1c-3.9-3.8-7-7.5-9.3-11.1c-14.2-17.7-30.1-39-47.9-63.8c-17.7-24.8-36.1-55-55-90.4
		c0,0.6-0.2,10.3-0.4,29.3c-0.3,18.9-0.4,42.4-0.4,70.5s-0.2,58.2-0.4,90.4c-0.3,32.2-0.6,62.2-0.9,90c-0.3,27.8-0.7,51-1.3,69.6
		s-1.2,27.9-1.8,27.9c0,10.1-2.4,19.4-7.1,27.9c-4.7,8.6-11.1,15.5-19.1,20.8s-17.3,8.3-27.9,8.9c-10.6,0.6-22.2-2.4-34.6-8.9
		c-7.7-4.7-13.5-11.5-17.3-20.4c-3.9-8.9-6.4-17.1-7.5-24.8c-0.6-8.3-1-16.3-1.3-23.9c-0.3-7.7-0.4-15.7-0.4-23.9l0.9-69.2
		l0.9-136.5V623.4c0-51.4,1.8-102,5.3-151.6c0-6.5,0.7-12.6,2.2-18.2s3.4-11.1,5.8-16.4c4.7-9.4,10.9-16.5,18.6-21.3
		c8.9-5.3,18.3-8,28.4-8c4.1,0,8.1,0.2,12,0.4c3.8,0.3,7.5,0.7,11.1,1.3c11.8,2.4,22,9.3,30.6,20.8s16.7,21.4,24.4,29.7
		c4.7,5.3,9.8,11.8,15.1,19.5s10.6,15.7,16,23.9c5.3,8.3,10.3,16.3,15.1,23.9c4.7,7.7,8.9,14.5,12.4,20.4
		c15.4,24.8,29.1,47.6,41.2,68.3c12.1,20.7,23.5,38.4,34.1,53.2c1.8-1.8,3.8-4.3,6.2-7.5s4.9-6.8,7.5-10.6c2.7-3.8,5-7.5,7.1-11.1
		c2.1-3.5,3.7-6.5,4.9-8.9c5.9-9.4,11.8-18.8,17.7-27.9c5.9-9.2,12.3-18.9,19.1-29.3c6.8-10.3,13.9-21.7,21.3-34.1
		c7.4-12.4,16.1-26.6,26.2-42.6c4.1-7.1,9.4-15.7,16-25.7c6.5-10,13.9-19.8,22.2-29.3c8.3-9.4,17-17.6,26.2-24.4
		s18.5-10.2,27.9-10.2c4.7,0,8.9,0.2,12.4,0.4c3.5,0.3,7.1,0.7,10.6,1.3c7.1,0.6,13.9,3.9,20.4,9.8c4.7,4.7,8.3,9.8,10.6,15.1
		c2.4,7.7,3.8,14.2,4.4,19.5c0.6,4.1,1,8,1.3,11.5c0.3,3.5,0.4,7.1,0.4,10.6c0,33.1,0.3,65.9,0.9,98.4s0.9,65.3,0.9,98.4
		c0,40.2,0.1,81.6,0.4,124.1c0.3,42.6,0.4,83.9,0.4,124.1c0,8.3,0.3,17.2,0.9,26.6C1030.4,957.3,1030.4,966.8,1029.8,976.2z"/>
</g>
<g>
	<g>
		<path d="M2185.3,1016.7c-0.7,7.9-1.6,16.1-3,24.6c-1.3,8.5-3.6,16.4-6.9,23.6c-3.3,7.9-7.5,13.8-12.8,17.7
			c-7.2,6.5-15.7,10.2-25.6,10.8c-9.2,3.3-18.1,4.3-26.6,3c-8.5-1.3-16.4-3.6-23.6-6.9c-9.2-5.9-15.9-12.9-20.2-21.2
			c-4.3-8.2-7.4-16.9-9.3-26.1c-2-9.2-3-18.7-3-28.5c0-9.8,0-19,0-27.6v-76.8l-1-150.6c0-10.5,0-18.7,0-24.6s0-11.3,0-16.2
			c0-4.9-0.2-10.5-0.5-16.7c-0.3-6.2-0.5-15.3-0.5-27.1c0-2,0.2-5.4,0.5-10.3c0.3-4.9-0.2-18.2-1.5-39.9
			c-25.6,42.7-46.7,76.9-63.5,102.8c-16.7,25.9-30.8,45.9-42.3,60c-11.5,14.1-21.5,23.6-30,28.5c-8.5,4.9-17.4,7.7-26.6,8.4
			c-5.3,0.7-10.5-0.3-15.7-3c-5.3-2.6-10.3-5.9-15.3-9.8c-4.9-3.9-9.5-8-13.8-12.3c-4.3-4.3-7.7-8.4-10.3-12.3
			c-15.7-19.7-33.5-43.3-53.1-70.9s-40-61-61-100.4c0,0.7-0.2,11.5-0.5,32.5c-0.3,21-0.5,47.1-0.5,78.2c0,31.2-0.2,64.6-0.5,100.4
			c-0.3,35.8-0.7,69.1-1,99.9c-0.3,30.8-0.8,56.6-1.5,77.2c-0.7,20.7-1.3,31-2,31c0,11.2-2.6,21.5-7.9,31
			c-5.3,9.5-12.3,17.2-21.2,23.1c-8.9,5.9-19.2,9.2-31,9.8c-11.8,0.6-24.6-2.6-38.4-9.8c-8.5-5.2-14.9-12.8-19.2-22.6
			c-4.3-9.8-7.1-19-8.4-27.6c-0.7-9.2-1.2-18-1.5-26.6c-0.3-8.5-0.5-17.4-0.5-26.6l1-76.8l1-151.5V625c0-57.1,2-113.2,5.9-168.3
			c0-7.2,0.8-13.9,2.5-20.2c1.6-6.2,3.8-12.3,6.4-18.2c5.2-10.5,12.1-18.4,20.7-23.6c9.8-5.9,20.3-8.9,31.5-8.9
			c4.6,0,9,0.2,13.3,0.5c4.3,0.3,8.4,0.8,12.3,1.5c13.1,2.6,24.4,10.3,33.9,23.1c9.5,12.8,18.5,23.8,27.1,33
			c5.2,5.9,10.8,13.1,16.7,21.6c5.9,8.5,11.8,17.4,17.7,26.6c5.9,9.2,11.5,18.1,16.7,26.6c5.2,8.5,9.8,16.1,13.8,22.6
			c17.1,27.6,32.3,52.8,45.8,75.8c13.4,23,26.1,42.7,37.9,59c2-2,4.3-4.8,6.9-8.4c2.6-3.6,5.4-7.5,8.4-11.8c3-4.3,5.6-8.4,7.9-12.3
			c2.3-3.9,4.1-7.2,5.4-9.8c6.6-10.5,13.1-20.8,19.7-31c6.5-10.2,13.6-21,21.2-32.5c7.5-11.5,15.4-24.1,23.6-37.9
			c8.2-13.8,17.9-29.5,29-47.2c4.6-7.9,10.5-17.4,17.7-28.5c7.2-11.1,15.4-22,24.6-32.5c9.2-10.5,18.9-19.5,29-27.1
			c10.2-7.5,20.5-11.3,31-11.3c5.2,0,9.8,0.2,13.8,0.5c3.9,0.3,7.9,0.8,11.8,1.5c7.9,0.7,15.4,4.3,22.6,10.8
			c5.2,5.3,9.2,10.8,11.8,16.7c2.6,8.5,4.3,15.7,4.9,21.6c0.6,4.6,1.1,8.9,1.5,12.8c0.3,3.9,0.5,7.9,0.5,11.8
			c0,36.7,0.3,73.2,1,109.2c0.6,36.1,1,72.5,1,109.2c0,44.6,0.2,90.5,0.5,137.8c0.3,47.2,0.5,93.2,0.5,137.8c0,9.2,0.3,19,1,29.5
			C2186,995.7,2186,1006.2,2185.3,1016.7z"/>
		<path d="M2392,642.7c21.6-10.5,44.3-18,67.9-22.6c23.6-4.6,47.1-5.6,70.4-3c23.3,2.6,45.9,8.9,67.9,18.7
			c22,9.8,42.1,23.6,60.5,41.3c15.1,15.1,28.2,33.3,39.4,54.6c11.1,21.3,19.3,42.2,24.6,62.5c11.1,36.1,12.8,72.5,4.9,109.2
			c-7.9,36.7-21.3,70.9-40.3,102.3c-9.2,14.4-20.5,27.4-33.9,38.9c-13.5,11.5-27.7,20.8-42.8,28c-19.7,9.2-41,15.6-64,19.2
			c-23,3.6-45.3,4.4-66.9,2.5c-39.4-2-74-11.8-103.8-29.5c-29.9-17.7-53.8-40.3-71.8-67.9c-18.1-27.6-29.9-58.9-35.4-94
			c-5.6-35.1-3.4-71,6.4-107.8c10.5-39.4,25.7-71.3,45.8-95.9C2340.6,674.7,2364.4,655.9,2392,642.7z M2421.5,774.6
			c-9.8,9.2-17.4,20.7-22.6,34.4c-5.3,13.8-8.5,28-9.8,42.8c-1.3,14.8-0.2,29.5,3.4,44.3c3.6,14.8,9.3,28,17.2,39.9
			c6.6,9.8,18.4,18.1,35.4,24.6c17.1,6.6,34.8,10.5,53.1,11.8c21,1.3,39.4-4.4,55.1-17.2c15.7-12.8,27.7-28.7,35.9-47.7
			c8.2-19,12-39.7,11.3-62c-0.7-22.3-6.6-42.6-17.7-61c-7.9-13.1-18.9-22.8-33-29c-14.1-6.2-28.9-9.5-44.3-9.8
			c-15.4-0.3-30.7,2-45.8,6.9C2444.8,757.4,2432,764.8,2421.5,774.6z"/>
		<path d="M3118.2,399.7c12.5-3.3,23.4-3.8,33-1.5c9.5,2.3,17.7,6.7,24.6,13.3c6.9,6.6,12.1,14.8,15.7,24.6
			c3.6,9.8,5.4,20.7,5.4,32.5c0.6,32.8,0.8,58.4,0.5,76.8c-0.3,18.4-0.5,34.4-0.5,48.2v302.1c0,35.4,0,64.9,0,88.6
			c0,23.6-1.2,42.8-3.4,57.6c-2.3,14.8-6.2,25.8-11.8,33c-5.6,7.2-13.9,12.3-25.1,15.3c-11.2,3-25.8,4.4-43.8,4.4
			c-18.1,0-40.5,0-67.4,0c-70.9,0-126.8-16.7-167.8-50.2c-41-33.5-62.8-86.6-65.4-159.4c-1.3-31.5,2.6-60.3,11.8-86.6
			c9.2-26.2,22.8-48.7,40.8-67.4c18-18.7,40.3-33.1,66.9-43.3c26.6-10.2,56.9-14.9,91-14.3h54.1V497.1c0-10.5,0-20.8,0-31
			c0-10.2,1-19.7,3-28.5s5.9-16.6,11.8-23.1C3097.5,407.9,3106.4,403,3118.2,399.7z M2947,945.8c13.8,19,38.7,29.5,74.8,31.5
			c7.2,0.7,14.1,0.8,20.7,0.5c6.5-0.3,12.5-1.1,17.7-2.5c5.9-0.6,11.5-1.6,16.7-3v-182c-23-3.9-43.8-6.4-62.5-7.4
			c-18.7-1-37.2,5.8-55.6,20.2c-9.8,7.9-17.4,17.9-22.6,30c-5.3,12.1-8.2,24.9-8.9,38.4c-0.7,13.5,0.6,26.7,3.9,39.9
			C2934.5,924.5,2939.7,936,2947,945.8z"/>
		<path d="M3736.2,420.4c5.9,7.9,9.5,17.1,10.8,27.6c0,3.9-0.2,7.7-0.5,11.3c-0.3,3.6-0.8,7.1-1.5,10.3c-0.7,7.2-4.9,14.1-12.8,20.7
			c-4.6,3.3-10.5,6.6-17.7,9.8c-3.9,1.3-8,2.1-12.3,2.5c-4.3,0.3-9,0.8-14.3,1.5c-3.9,1.3-8.2,2-12.8,2c-4.6,0-9.2,0-13.8,0h-44.3
			l-205.7,1v3l-1,160.4c5.2,0,11,0,17.2,0c6.2,0,13.9-0.3,23.1-1c26.2,0,49.7,0,70.4,0c20.7,0,43.5,0.3,68.4,1h5.9
			c7.2,0,14.6,0.2,22.1,0.5c7.5,0.3,15.3,0.5,23.1,0.5c7.2,0.7,14.4,1.5,21.6,2.5c7.2,1,14.4,2.8,21.6,5.4
			c11.8,3.9,20.3,10.2,25.6,18.7c7.2,8.5,10.8,17.4,10.8,26.6c0,3.9,0,7.7,0,11.3c0,3.6-0.7,7.4-2,11.3c-0.7,5.3-4.9,11.8-12.8,19.7
			c-5.3,4.6-11.5,7.5-18.7,8.9c-3.3,1.3-7.1,2.5-11.3,3.4c-4.3,1-8.7,1.8-13.3,2.5c-4.6,0.7-9,1.2-13.3,1.5c-4.3,0.3-9,0.5-14.3,0.5
			h-45.3l-181.1,1l-3,228.3v7.9c0,3.3-0.2,6.4-0.5,9.3c-0.3,3-0.8,6.1-1.5,9.3c-1.3,3.3-2.5,6.7-3.4,10.3c-1,3.6-2.1,7.1-3.4,10.3
			c-4.6,9.2-8.9,15.4-12.8,18.7c-7.2,5.3-16.1,8.9-26.6,10.8c-17.7,3.9-34.4,2-50.2-5.9c-3.3-2-6.4-4.4-9.3-7.4s-5.4-6.7-7.4-11.3
			c-1.3-2.6-2-4.6-2-5.9l-3-5.9c-2-3.3-3.3-6.7-3.9-10.3c-0.7-3.6-1.3-7-2-10.3c0-3.3-0.2-6.5-0.5-9.8c-0.3-3.3-0.8-6.5-1.5-9.8
			c-0.7-5.2-0.7-10.5,0-15.7v-15.7l1-76.8l1-141.7c0.6-21,1-42.3,1-64s0-43.9,0-66.9c-0.7-23.6-0.8-44.6-0.5-63
			c0.3-18.4,1.1-38.4,2.5-60V504c0.6-7.2,1-13.9,1-20.2c0-6.2,0.6-12.6,2-19.2c1.3-14.4,4.6-27.2,9.8-38.4
			c4.6-11.1,11.1-19,19.7-23.6c9.8-5.9,20.3-8.9,31.5-8.9c5.2,0,9.5,0.3,12.8,1v-1c11.8,0,21.3,0,28.5,0c7.2,0,14.1,0,20.7,0
			c6.5,0,13.8-0.2,21.6-0.5c7.9-0.3,18.4-0.5,31.5-0.5c52.5-0.6,104.3-0.6,155.5,0h4.9c7.2,0.7,14.6,1,22.1,1c7.5,0,15.3,0.3,23.1,1
			c7.2,0,14.4,0.8,21.6,2.5c7.2,1.6,14.4,3.8,21.6,6.4C3721.7,406.9,3730.2,412.5,3736.2,420.4z"/>
		<path d="M4110.1,952.7c7.9-2,15.9-3.3,24.1-3.9c8.2-0.6,15.7,0.3,22.6,3c6.9,2.6,12.6,7.1,17.2,13.3c4.6,6.2,6.9,14.9,6.9,26.1
			c0,7.9-2,15.4-5.9,22.6c-3.9,7.2-8.9,13.8-14.8,19.7s-12.5,11-19.7,15.3c-7.2,4.3-14.1,7.7-20.7,10.3c-19,8.5-40.8,15.1-65.4,19.7
			c-24.6,4.6-50,6.2-76.3,4.9c-35.4-1.3-69.4-8.4-101.8-21.2c-32.5-12.8-57.9-33.9-76.3-63.5c-17.1-28.9-27.2-61-30.5-96.4
			c-3.3-35.4-1.6-68.9,4.9-100.4c7.2-38,19.5-69,36.9-93c17.4-23.9,38.2-43.1,62.5-57.6c29.5-17.1,62.6-25.9,99.4-26.6
			c36.7-0.6,71.8,6.6,105.3,21.6c22.3,9.8,42.3,23.1,60,39.9c17.7,16.7,31.2,36.9,40.3,60.5c2.6,5.9,4.8,13.1,6.4,21.6
			c1.6,8.5,2.8,17.6,3.4,27.1c0.6,9.5,0.6,18.9,0,28c-0.7,9.2-2.3,17.4-4.9,24.6c-3.9,11.8-8.9,21-14.8,27.6
			c-5.9,6.6-13.5,11.5-22.6,14.8c-9.2,3.3-20.2,5.4-33,6.4c-12.8,1-28,1.8-45.8,2.5c-15.7,0.7-30.5,1-44.3,1s-27.9-0.2-42.3-0.5
			c-14.4-0.3-29.4-0.6-44.8-1c-15.4-0.3-32.6-0.8-51.7-1.5c-2,13.1-0.2,24.4,5.4,33.9c5.6,9.5,13.3,17.4,23.1,23.6
			c9.8,6.2,21,11,33.5,14.3c12.5,3.3,24.6,5.3,36.4,5.9c22.3,1.3,43.6-0.5,64-5.4C4067.4,965,4088.4,959.3,4110.1,952.7z
			 M4067.8,761.8c-12.5-14.4-25.6-24.9-39.4-31.5c-10.5-4.6-21.5-6.7-33-6.4c-11.5,0.3-22.5,2.1-33,5.4c-19,4.6-35.1,14.4-48.2,29.5
			c-1.3,1.3-3.6,4.4-6.9,9.3c-3.3,4.9-6.4,10-9.3,15.3c-3,5.3-5.1,10.2-6.4,14.8c-1.3,4.6-0.7,6.9,2,6.9h192.9
			c-0.7-9.2-2.3-16.9-4.9-23.1C4078.9,775.8,4074.3,769,4067.8,761.8z"/>
		<path d="M4503.7,914.3c-12.5-7.9-26.4-14.1-41.8-18.7c-15.4-4.6-31.2-8.9-47.2-12.8c-16.1-3.9-31.7-8.4-46.7-13.3
			c-15.1-4.9-28.9-12-41.3-21.2c-26.9-20.3-42.5-45.4-46.7-75.3c-4.3-29.8,2.1-59.9,19.2-90c9.2-15.7,21.3-28.7,36.4-38.9
			c15.1-10.2,31.6-18,49.7-23.6c18-5.6,36.6-8.7,55.6-9.3c19-0.6,37.1,0.3,54.1,3c11.1,2,23,4.8,35.4,8.4
			c12.5,3.6,24.1,8.4,34.9,14.3s20.7,13.3,29.5,22.1s15.3,19.8,19.2,33c2.6,8.5,3.1,16.7,1.5,24.6c-1.6,7.9-4.9,14.4-9.8,19.7
			c-4.9,5.3-11.2,9.2-18.7,11.8c-7.5,2.6-15.6,3.3-24.1,2c-9.8-2-19-4.9-27.6-8.9c-8.5-3.9-17.1-8.2-25.6-12.8
			c-8.5-4.6-17.2-8.5-26.1-11.8c-8.9-3.3-18.2-4.9-28-4.9c-15.1-0.6-27.6,2-37.4,7.9c-9.8,5.9-16.6,13.1-20.2,21.6
			c-3.6,8.5-3.3,17.7,1,27.6c4.3,9.8,13.3,18.4,27.1,25.6c12.5,6.6,26.2,11.8,41.3,15.7c15.1,3.9,30,7.9,44.8,11.8
			c14.8,3.9,29.2,8.5,43.3,13.8c14.1,5.3,26.7,12.5,37.9,21.6c21.6,17.7,34.9,38.4,39.9,62s3.4,46.9-4.4,69.9
			c-7.9,23-21.5,43.3-40.8,61c-19.4,17.7-42.2,29.5-68.4,35.4c-19,3.9-39.5,5.9-61.5,5.9c-22,0-43.6-2.3-64.9-6.9
			c-21.3-4.6-41.7-11.8-61-21.6c-19.4-9.8-35.6-22.3-48.7-37.4c-9.2-10.5-13.9-22.5-14.3-35.9c-0.3-13.4,2.3-25.2,7.9-35.4
			c5.6-10.2,13.6-17.2,24.1-21.2c10.5-3.9,22.3-1.6,35.4,6.9c10.5,7.2,23,14.3,37.4,21.2c14.4,6.9,28.9,12.3,43.3,16.2
			c14.4,3.9,28.4,5.9,41.8,5.9c13.4,0,25.1-3,34.9-8.9c14.4-9.2,22-19.8,22.6-32C4517.1,930.3,4512.9,920.9,4503.7,914.3z"/>
		<path d="M5093.1,653.6c5.2,12.5,5.7,26.2,1.5,41.3c-4.3,15.1-12,24.9-23.1,29.5c-5.9,2.6-13.8,4.8-23.6,6.4
			c-9.8,1.6-20.5,3.1-32,4.4c-11.5,1.3-22.8,2.3-33.9,3c-11.2,0.7-20.7,1-28.5,1c0.6,19.7,1.3,39.9,2,60.5c0.6,20.7,1.3,40.8,2,60.5
			c0.6,19.7,1,38.5,1,56.6c0,18.1-0.3,34.3-1,48.7c0,9.8,0,21.2,0,33.9c0,12.8-0.8,25.1-2.5,36.9c-1.6,11.8-4.1,22.1-7.4,31
			c-3.3,8.9-8.2,14.6-14.8,17.2c-20.3,8.5-38.9,11-55.6,7.4c-16.7-3.6-28.7-10.7-35.9-21.2c-5.3-8.5-9.2-18.5-11.8-30
			c-2.6-11.5-4.4-23.3-5.4-35.4c-1-12.1-1.3-23.9-1-35.4c0.3-11.5,0.5-21.5,0.5-30c0.6-27.6,1.1-58.9,1.5-94
			c0.3-35.1,0.5-70.4,0.5-105.8h-14.8c-7.9,0-17.9-0.2-30-0.5c-12.1-0.3-24.3-1.3-36.4-3c-12.1-1.6-23.5-3.9-33.9-6.9
			c-10.5-3-18.1-7.4-22.6-13.3c-7.2-8.5-11.7-17.7-13.3-27.6c-1.6-9.8-1-19.2,2-28c3-8.9,7.7-16.7,14.3-23.6
			c6.5-6.9,14.1-11.3,22.6-13.3c11.8-3.3,28.5-5.1,50.2-5.4c21.6-0.3,42-0.2,61,0.5c-0.7-6.6-1-12.9-1-19.2c0-6.2-0.3-12.3-1-18.2
			c-0.7-7.9-1-17.9-1-30c0-12.1,0.8-24.3,2.5-36.4c1.6-12.1,4.4-23.6,8.4-34.4c3.9-10.8,9.5-19.2,16.7-25.1
			c9.8-7.9,19.8-12.3,30-13.3c10.2-1,19.7,0.5,28.5,4.4c8.9,3.9,16.4,9.7,22.6,17.2c6.2,7.5,10.7,15.9,13.3,25.1
			c2,7.9,3.6,17.2,4.9,28c1.3,10.8,2.1,22.1,2.5,33.9c0.3,11.8,0.5,23.6,0.5,35.4c0,11.8,0,22.6,0,32.5h9.8c9.8,0,21.3-0.3,34.4-1
			c13.1-0.6,26.1-0.3,38.9,1c12.8,1.3,24.4,4.4,34.9,9.3C5080,633.4,5087.9,641.8,5093.1,653.6z"/>
	</g>
	<g>
		<path class="st2" d="M4036.7,279.1c1.8-0.5,3.4-0.9,4.9-1.3c1.5-0.4,3-0.7,4.6-0.9c1.8-0.5,4-0.8,6.6-0.9c2.7-0.1,5.2,0,7.6,0.4
			c2.4,0.4,4.7,1.1,6.8,2.3c2.1,1.1,3.7,2.8,4.7,5.1c1,2.5,1.7,5.5,2.1,8.9c0.4,3.4,0.6,6.9,0.6,10.4c0,3.5-0.1,7-0.2,10.4
			c-0.1,3.4-0.2,6.5-0.2,9.3v193.8c0,2.8,0.1,5.6,0.2,8.5c0.1,2.9,0.1,5.9-0.2,8.9c-0.3,3-1,5.9-2.3,8.5c-1.3,2.7-3.2,4.9-5.7,6.6
			c-3.5,2.8-8.3,4.2-14.2,4.4c-5.9,0.1-11.1-0.6-15.4-2.1c-4.6-1.5-7.3-4.4-8.2-8.7c-0.9-4.3-1.3-8.6-1.3-12.9
			c-1.8-33.4-2.6-66-2.5-98c0.1-32,0.2-64.9,0.2-98.8c-0.5,1.3-2.2,2.4-5.1,3.4c-2.9,1-6.2,1.9-9.9,2.7c-3.7,0.8-7.1,1.4-10.4,1.9
			c-3.3,0.5-5.4,0.8-6.4,0.8c-6.6,0.8-12.6,0.1-18-2.1c-5.4-2.1-8.5-7.1-9.3-15c-1-8.1,0.8-14.4,5.5-19c4.7-4.6,10.7-8,18-10.2
			c8.1-2.8,16-5.6,23.7-8.5C4020.7,284,4028.6,281.4,4036.7,279.1z"/>
		<path class="st2" d="M4175.5,552.9c0,6.6-2.3,12.2-7,16.9c-4.7,4.7-10.3,7-16.9,7c-6.6,0-12.2-2.3-16.9-7c-4.7-4.7-7-10.3-7-16.9
			s2.3-12.3,7-17.1c4.7-4.8,10.3-7.2,16.9-7.2c6.6,0,12.2,2.4,16.9,7.2C4173.2,540.6,4175.5,546.3,4175.5,552.9z"/>
		<path class="st2" d="M4268.4,279.1c1.8-0.5,3.4-0.9,4.9-1.3c1.5-0.4,3-0.7,4.6-0.9c1.8-0.5,4-0.8,6.6-0.9c2.7-0.1,5.2,0,7.6,0.4
			c2.4,0.4,4.7,1.1,6.8,2.3c2.1,1.1,3.7,2.8,4.7,5.1c1,2.5,1.7,5.5,2.1,8.9c0.4,3.4,0.6,6.9,0.6,10.4c0,3.5-0.1,7-0.2,10.4
			c-0.1,3.4-0.2,6.5-0.2,9.3v193.8c0,2.8,0.1,5.6,0.2,8.5c0.1,2.9,0.1,5.9-0.2,8.9c-0.3,3-1,5.9-2.3,8.5c-1.3,2.7-3.2,4.9-5.7,6.6
			c-3.5,2.8-8.3,4.2-14.2,4.4c-5.9,0.1-11.1-0.6-15.4-2.1c-4.6-1.5-7.3-4.4-8.2-8.7c-0.9-4.3-1.3-8.6-1.3-12.9
			c-1.8-33.4-2.6-66-2.5-98c0.1-32,0.2-64.9,0.2-98.8c-0.5,1.3-2.2,2.4-5.1,3.4c-2.9,1-6.2,1.9-9.9,2.7c-3.7,0.8-7.1,1.4-10.4,1.9
			c-3.3,0.5-5.4,0.8-6.4,0.8c-6.6,0.8-12.6,0.1-18-2.1c-5.4-2.1-8.5-7.1-9.3-15c-1-8.1,0.8-14.4,5.5-19c4.7-4.6,10.7-8,18-10.2
			c8.1-2.8,16-5.6,23.7-8.5C4252.4,284,4260.3,281.4,4268.4,279.1z"/>
		<path class="st2" d="M4384.5,287.8c2.3-2.3,5.2-3.7,8.9-4.4c3.7-0.6,8-0.9,13.1-0.9h93.7c3.3,0,7-0.1,11.2-0.2
			c4.2-0.1,8.2,0.2,11.9,0.9s7.1,2.1,10,4c2.9,1.9,5,4.9,6.3,8.9c0.8,2.5,1.1,5.4,0.9,8.7c-0.1,3.3-0.8,6.4-1.9,9.3
			c-1.1,2.9-2.8,5.4-5.1,7.6c-2.3,2.2-5.1,3.4-8.3,3.6c-6.6,1.3-13.4,1.6-20.5,0.9c-7.1-0.6-13.9-0.9-20.5-0.9
			c-7.3,0-13.8,0.3-19.3,0.8c-5.6,0.5-11.9,0.8-19,0.8c-2.8,0-6.3-0.1-10.6-0.4c-4.3-0.2-7.6,0-9.9,0.8c-2,0.5-3.6,1.5-4.7,3
			c-1.1,1.5-2,3.2-2.5,5.1c-0.5,1.9-0.8,3.9-0.8,5.9c0,2,0,3.8,0,5.3c0,4.3-0.2,8.7-0.6,13.1c-0.4,4.4-0.7,8.8-0.9,13.1
			c-0.5,5.8,0.3,9,2.5,9.7c2.1,0.6,5.9,0.2,11.2-1.3c9.1-2.3,18.5-3.4,28.1-3.4c12.9,0,24.9,1.7,36,5.1c11.1,3.4,20.8,8.6,29,15.5
			c8.2,7,14.7,15.7,19.3,26.2c4.7,10.5,7,22.7,7,36.6c0,2.5-0.1,4.9-0.2,7.2c-0.1,2.3-0.4,4.6-0.9,6.8c-2,15.9-8,30-17.8,42.1
			c-9.9,12.1-22.4,20.9-37.5,26.2c-18,6.8-36.5,9.9-55.7,9.3c-19.2-0.6-36.9-6.1-53.1-16.5c-4.6-2.8-8.7-6.1-12.5-10
			c-3.8-3.9-6.6-8.4-8.3-13.5c-2-5.3-2.6-10.8-1.7-16.5c0.9-5.7,4.2-9.9,10-12.7c4.3-2,8.3-2.7,11.9-2.1c3.7,0.6,7.1,1.9,10.4,3.8
			c3.3,1.9,6.5,4.2,9.7,6.8c3.2,2.7,6.4,4.9,9.7,6.6c5.8,2.8,11.9,5.1,18.2,7c6.3,1.9,13,2.8,20.1,2.8c15.7,0,28.3-4.2,37.7-12.5
			s14.2-19.6,14.2-33.8c0-13.7-4.9-24.3-14.8-32c-9.9-7.7-23.1-11.6-39.8-11.6c-4.3,0-8.6,0.3-12.9,0.8c-4.3,0.5-8.6,1.4-12.9,2.7
			c-4,1-8,2.2-11.9,3.4c-3.9,1.3-7.8,2.1-11.6,2.5c-3.8,0.4-7.5,0-11.2-1.1c-3.7-1.1-7.1-3.7-10.4-7.8c-3.3-3.5-4.9-7.8-4.9-12.9
			c0-5.1,0.2-9.7,0.8-14c0.5-7.3,0.9-14.7,1.1-22c0.2-7.3,0.6-14.7,1.1-22c0.5-7.3,0.9-14.6,1.3-21.8c0.4-7.2,0.8-14.5,1.3-21.8
			c0.2-4.3,0.9-7.7,1.9-10.2C4381.3,291.7,4382.7,289.6,4384.5,287.8z"/>
	</g>
</g>
</svg>
